<svg width="39" height="39" viewBox="0 0 39 39" fill="none" xmlns="http://www.w3.org/2000/svg">
<g clip-path="url(#clip0_960_356)">
<path d="M31.5024 20.2666L19.412 32.2409L7.32169 20.2666C4.12984 17.1651 4.05891 12.0581 7.16694 8.86625C10.2685 5.6744 15.3755 5.60347 18.5673 8.71149C18.8768 9.00811 19.1606 9.33697 19.412 9.67872C22.088 6.11932 27.1434 5.40357 30.6963 8.07957C34.2557 10.7556 34.9715 15.8109 32.2955 19.3639C32.0569 19.6863 31.7861 19.9894 31.5024 20.2731" stroke="black" stroke-width="2.5"/>
<path d="M18.4963 10.9684L14.105 14.9791C13.4731 15.611 13.4731 16.6299 14.105 17.2618L14.982 18.1387C16.0911 19.2478 17.8966 19.2478 19.0121 18.1387L20.6242 16.5267C22.6295 14.5213 25.873 14.5213 27.8784 16.5267L31.5022 20.1506" stroke="black" stroke-width="2.5" stroke-linecap="round"/>
<path d="M20.218 24.9867L23.4421 28.2108" stroke="black" stroke-width="2.5"/>
<path d="M24.248 20.9566L27.4721 24.1807" stroke="black" stroke-width="2.5"/>
</g>
<defs>
<clipPath id="clip0_960_356">
<rect width="38.6891" height="38.6891" fill="black" transform="translate(0.0673828)"/>
</clipPath>
</defs>
</svg>
