<svg width="40" height="38" viewBox="0 0 40 38" fill="none" xmlns="http://www.w3.org/2000/svg">
<g clip-path="url(#clip0_960_342)">
<path d="M23.1282 6.33334H32.8782V15.8333H23.1282V6.33334Z" stroke="black" stroke-width="2.5"/>
<path d="M6.87817 22.1667H16.6282V31.6667H6.87817V22.1667Z" stroke="black" stroke-width="2.5"/>
<path d="M23.1282 26.9167C23.1282 29.5387 25.3122 31.6667 28.0032 31.6667C30.6942 31.6667 32.8782 29.5387 32.8782 26.9167C32.8782 24.2947 30.6942 22.1667 28.0032 22.1667C25.3122 22.1667 23.1282 24.2947 23.1282 26.9167Z" stroke="black" stroke-width="2.5"/>
<path d="M6.87817 11.0833C6.87817 13.7053 9.06217 15.8333 11.7532 15.8333C14.4442 15.8333 16.6282 13.7053 16.6282 11.0833C16.6282 8.46134 14.4442 6.33334 11.7532 6.33334C9.06217 6.33334 6.87817 8.46134 6.87817 11.0833Z" stroke="black" stroke-width="2.5"/>
</g>
<defs>
<clipPath id="clip0_960_342">
<rect width="39" height="38" fill="black" transform="translate(0.378174)"/>
</clipPath>
</defs>
</svg>
