<svg width="26" height="26" viewBox="0 0 26 26" fill="none" xmlns="http://www.w3.org/2000/svg">
<circle cx="13" cy="6.75" r="4.75" stroke="#A3A3A3" stroke-width="2.5"/>
<mask id="path-2-inside-1_979_4241" fill="white">
<path d="M0 24.25C0 18.7272 4.47715 14.25 10 14.25H16C21.5228 14.25 26 18.7272 26 24.25V25.25H0V24.25Z"/>
</mask>
<path d="M-2.5 24.25C-2.5 17.3464 3.09644 11.75 10 11.75H16C22.9036 11.75 28.5 17.3464 28.5 24.25H23.5C23.5 20.1079 20.1421 16.75 16 16.75H10C5.85786 16.75 2.5 20.1079 2.5 24.25H-2.5ZM26 25.25H0H26ZM-2.5 25.25V24.25C-2.5 17.3464 3.09644 11.75 10 11.75V16.75C5.85786 16.75 2.5 20.1079 2.5 24.25V25.25H-2.5ZM16 11.75C22.9036 11.75 28.5 17.3464 28.5 24.25V25.25H23.5V24.25C23.5 20.1079 20.1421 16.75 16 16.75V11.75Z" fill="#A3A3A3" mask="url(#path-2-inside-1_979_4241)"/>
</svg>
