<svg width="80" height="81" viewBox="0 0 80 81" fill="none" xmlns="http://www.w3.org/2000/svg">
<g clip-path="url(#clip0_1026_6912)">
<path d="M64.9999 42.6922L39.9999 67.4522L14.9999 42.6922C8.39994 36.2788 8.25327 25.7188 14.6799 19.1188C21.0933 12.5188 31.6533 12.3722 38.2533 18.7988C38.8933 19.4122 39.4799 20.0922 39.9999 20.7988C45.5333 13.4388 55.9866 11.9588 63.3333 17.4922C70.6933 23.0255 72.1733 33.4788 66.6399 40.8255C66.1466 41.4922 65.5866 42.1188 64.9999 42.7055" stroke="white" stroke-width="3.5"/>
<path d="M38.1066 23.4648L29.0266 31.7582C27.72 33.0648 27.72 35.1715 29.0266 36.4782L30.84 38.2915C33.1333 40.5848 36.8666 40.5848 39.1733 38.2915L42.5066 34.9582C46.6533 30.8115 53.36 30.8115 57.5066 34.9582L65 42.4515" stroke="white" stroke-width="3.5" stroke-linecap="round"/>
<path d="M41.6667 52.4512L48.3334 59.1178" stroke="white" stroke-width="3.5"/>
<path d="M50 44.1191L56.6667 50.7858" stroke="white" stroke-width="3.5"/>
</g>
<defs>
<clipPath id="clip0_1026_6912">
<rect width="80" height="80" fill="white" transform="translate(0 0.785156)"/>
</clipPath>
</defs>
</svg>
