<svg width="21" height="18" viewBox="0 0 21 18" fill="none" xmlns="http://www.w3.org/2000/svg">
<path d="M7.01562 5.28516L13.0778 14.4554H0.953447L7.01562 5.28516Z" fill="#436AEB"/>
<path d="M12.7109 9.19141L16.6081 14.5407H8.81382L12.7109 9.19141Z" fill="#436AEB"/>
<ellipse cx="16.0156" cy="5.28393" rx="2" ry="2.03784" fill="#436AEB"/>
<mask id="path-4-inside-1_1745_1289" fill="white">
<path d="M0.015625 1.01172C0.015625 0.735576 0.239483 0.511719 0.515625 0.511719H19.5156C19.7918 0.511719 20.0156 0.735576 20.0156 1.01172V15.3011C20.0156 15.5773 19.7918 15.8011 19.5156 15.8011H0.515625C0.239482 15.8011 0.015625 15.5773 0.015625 15.3011V1.01172Z"/>
</mask>
<path d="M0.515625 2.01172H19.5156V-0.988281H0.515625V2.01172ZM18.5156 1.01172V15.3011H21.5156V1.01172H18.5156ZM19.5156 14.3011H0.515625V17.3011H19.5156V14.3011ZM1.51562 15.3011V1.01172H-1.48438V15.3011H1.51562ZM0.515625 14.3011C1.06791 14.3011 1.51562 14.7488 1.51562 15.3011H-1.48438C-1.48438 16.4057 -0.588947 17.3011 0.515625 17.3011V14.3011ZM18.5156 15.3011C18.5156 14.7488 18.9633 14.3011 19.5156 14.3011V17.3011C20.6202 17.3011 21.5156 16.4057 21.5156 15.3011H18.5156ZM19.5156 2.01172C18.9633 2.01172 18.5156 1.564 18.5156 1.01172H21.5156C21.5156 -0.092849 20.6202 -0.988281 19.5156 -0.988281V2.01172ZM0.515625 -0.988281C-0.588945 -0.988281 -1.48438 -0.0928503 -1.48438 1.01172H1.51562C1.51562 1.564 1.06791 2.01172 0.515625 2.01172V-0.988281Z" fill="#436AEB" mask="url(#path-4-inside-1_1745_1289)"/>
</svg>
