<svg width="14" height="12" viewBox="0 0 14 12" fill="none" xmlns="http://www.w3.org/2000/svg">
<path d="M4.70625 3.41406L8.64667 9.34778H0.765834L4.70625 3.41406Z" fill="#FF7200"/>
<path d="M8.40937 5.94531L10.9425 9.40664H5.87625L8.40937 5.94531Z" fill="#FF7200"/>
<ellipse cx="9.70625" cy="3.95532" rx="1.3" ry="1.3186" fill="#FF7200"/>
<mask id="path-4-inside-1_1745_1341" fill="white">
<path d="M0.15625 0.828124C0.15625 0.551982 0.380108 0.328125 0.65625 0.328125H12.6562C12.9324 0.328125 13.1562 0.551983 13.1562 0.828125V9.72127C13.1562 9.99741 12.9324 10.2213 12.6562 10.2213H0.65625C0.380108 10.2213 0.15625 9.99741 0.15625 9.72127V0.828124Z"/>
</mask>
<path d="M0.65625 1.32812H12.6562V-0.671875H0.65625V1.32812ZM12.1562 0.828125V9.72127H14.1562V0.828125H12.1562ZM12.6562 9.22127H0.65625V11.2213H12.6562V9.22127ZM1.15625 9.72127V0.828124H-0.84375V9.72127H1.15625ZM0.65625 9.22127C0.932392 9.22127 1.15625 9.44513 1.15625 9.72127H-0.84375C-0.84375 10.5497 -0.172176 11.2213 0.65625 11.2213V9.22127ZM12.1562 9.72127C12.1562 9.44513 12.3801 9.22127 12.6562 9.22127V11.2213C13.4847 11.2213 14.1562 10.5497 14.1562 9.72127H12.1562ZM12.6562 1.32812C12.3801 1.32812 12.1562 1.10427 12.1562 0.828125H14.1562C14.1562 -0.00030297 13.4847 -0.671875 12.6562 -0.671875V1.32812ZM0.65625 -0.671875C-0.172175 -0.671875 -0.84375 -0.000304759 -0.84375 0.828124H1.15625C1.15625 1.10427 0.932391 1.32812 0.65625 1.32812V-0.671875Z" fill="#FF7200" mask="url(#path-4-inside-1_1745_1341)"/>
</svg>
