<svg width="14" height="14" viewBox="0 0 14 14" fill="none" xmlns="http://www.w3.org/2000/svg">
<mask id="path-1-inside-1_1745_1329" fill="white">
<path d="M0.15625 0.828125C0.15625 0.551983 0.380108 0.328125 0.65625 0.328125H12.6562C12.9324 0.328125 13.1562 0.551983 13.1562 0.828125V12.8281C13.1562 13.1043 12.9324 13.3281 12.6562 13.3281H0.65625C0.380108 13.3281 0.15625 13.1043 0.15625 12.8281V0.828125Z"/>
</mask>
<path d="M0.65625 1.32812H12.6562V-0.671875H0.65625V1.32812ZM12.1562 0.828125V12.8281H14.1562V0.828125H12.1562ZM12.6562 12.3281H0.65625V14.3281H12.6562V12.3281ZM1.15625 12.8281V0.828125H-0.84375V12.8281H1.15625ZM0.65625 12.3281C0.932392 12.3281 1.15625 12.552 1.15625 12.8281H-0.84375C-0.84375 13.6566 -0.172176 14.3281 0.65625 14.3281V12.3281ZM12.1562 12.8281C12.1562 12.552 12.3801 12.3281 12.6562 12.3281V14.3281C13.4847 14.3281 14.1562 13.6566 14.1562 12.8281H12.1562ZM12.6562 1.32812C12.3801 1.32812 12.1562 1.10427 12.1562 0.828125H14.1562C14.1562 -0.00030297 13.4847 -0.671875 12.6562 -0.671875V1.32812ZM0.65625 -0.671875C-0.172178 -0.671875 -0.84375 -0.000300884 -0.84375 0.828125H1.15625C1.15625 1.10427 0.932393 1.32812 0.65625 1.32812V-0.671875Z" fill="#FF7200" mask="url(#path-1-inside-1_1745_1329)"/>
<path d="M0.15625 3.33203H13.1563" stroke="#FF7200"/>
<path d="M0.15625 6.33203H13.1563" stroke="#FF7200"/>
<path d="M0.15625 9.33203H13.1563" stroke="#FF7200"/>
<path d="M9.65625 0.832031L9.65625 12.832" stroke="#FF7200"/>
<path d="M6.65625 0.832031L6.65625 12.832" stroke="#FF7200"/>
<path d="M3.65625 0.832031L3.65625 12.832" stroke="#FF7200"/>
</svg>
