<svg width="25" height="25" viewBox="0 0 25 25" fill="none" xmlns="http://www.w3.org/2000/svg">
<path d="M19.0961 17.281L24.1563 22.34L22.4845 24.0117L17.4255 18.9516C15.5432 20.4605 13.2018 21.2813 10.7893 21.2778C4.91986 21.2778 0.15625 16.5142 0.15625 10.6448C0.15625 4.77533 4.91986 0.0117188 10.7893 0.0117188C16.6588 0.0117188 21.4224 4.77533 21.4224 10.6448C21.4258 13.0573 20.6051 15.3986 19.0961 17.281ZM16.7261 16.4044C18.2255 14.8624 19.0629 12.7955 19.0595 10.6448C19.0595 6.07493 15.358 2.37462 10.7893 2.37462C6.21946 2.37462 2.51915 6.07493 2.51915 10.6448C2.51915 15.2135 6.21946 18.9149 10.7893 18.9149C12.9401 18.9183 15.007 18.081 16.5489 16.5816L16.7261 16.4044Z" fill="white"/>
</svg>
