<svg width="21" height="31" viewBox="0 0 21 31" fill="none" xmlns="http://www.w3.org/2000/svg">
<path d="M16.5275 27.8909C16.5275 29.1526 13.6332 30.1753 10.0626 30.1753C6.49198 30.1753 3.59766 29.1526 3.59766 27.8909C3.59766 27.0523 4.87636 26.3192 6.78252 25.9219C7.59852 26.7531 8.32087 27.3998 8.83828 27.8386C9.18014 28.1283 9.61503 28.2876 10.0629 28.2876C10.5108 28.2876 10.9457 28.1283 11.2875 27.8386C11.8052 27.3998 12.5273 26.7534 13.3433 25.9219C15.2494 26.3192 16.5281 27.0523 16.5281 27.8909H16.5275Z" fill="#FF7B7B"/>
<circle cx="10.1172" cy="10.2383" r="6.5" fill="white"/>
<path fill-rule="evenodd" clip-rule="evenodd" d="M10.8711 27.3468C13.2505 25.3303 20.0625 18.8055 20.0625 10.1875C20.0625 4.65822 15.5853 0.175781 10.0625 0.175781C4.53967 0.175781 0.0625 4.65822 0.0625 10.1875C0.0625 18.8055 6.87454 25.3303 9.25392 27.3468C9.72065 27.7422 10.4044 27.7422 10.8711 27.3468ZM16.4722 10.1875C16.4722 13.7316 13.6025 16.6046 10.0626 16.6046C6.52267 16.6046 3.65299 13.7316 3.65299 10.1875C3.65299 6.6434 6.52267 3.77034 10.0626 3.77034C13.6025 3.77034 16.4722 6.6434 16.4722 10.1875Z" fill="#FF7B7B"/>
</svg>
