<svg width="14" height="14" viewBox="0 0 14 14" fill="none" xmlns="http://www.w3.org/2000/svg">
<path d="M8.73231 1.15104V8.19271C7.42972 8.23604 6.40871 9.29771 6.38721 10.5977L4.58594 10.3594V0.609375L8.73231 1.15104Z" fill="#FF7200"/>
<path d="M8.81782 8.19141C10.1419 8.19141 11.2274 9.25307 11.2489 10.5747V10.6397C11.2489 11.9831 10.1634 13.0881 8.79632 13.0881C7.42924 13.0881 6.34375 12.0047 6.34375 10.6397V10.5964C6.36524 9.29641 7.40775 8.23474 8.68885 8.19141C8.75333 8.19141 8.79632 8.19141 8.81997 8.19141H8.81782Z" fill="#FF7200"/>
<path d="M0.416339 11.1621C0.351854 11.1621 0.28522 11.1404 0.24223 11.0971C0.177745 11.0538 0.15625 10.9671 0.15625 10.9021V1.15208C0.15625 1.02208 0.263725 0.892084 0.394844 0.892084L4.56271 0.350417C4.71532 0.32875 4.84429 0.437084 4.86579 0.58875C4.88728 0.740417 4.77981 0.870417 4.6272 0.892084L0.676427 1.36875V10.5771L4.54122 10.0788C4.69383 10.0571 4.8228 10.1654 4.84429 10.3171C4.86579 10.4688 4.75831 10.5988 4.6057 10.6204L0.437834 11.1621H0.416339Z" fill="#FF7200"/>
<path d="M11.2488 10.8365C11.1177 10.8365 10.9888 10.7281 10.9888 10.5981C10.9673 10.4465 11.0747 10.3165 11.2273 10.2948L12.6159 10.1215V0.913125L8.75113 1.41146C8.59851 1.43313 8.46954 1.32479 8.44805 1.17312C8.42656 1.02146 8.53403 0.891458 8.68664 0.869792L12.8545 0.328125C12.9405 0.328125 13.0071 0.349792 13.0716 0.393125C13.1361 0.436458 13.1576 0.523125 13.1576 0.588125V10.3381C13.1576 10.4681 13.0501 10.5981 12.919 10.5981L11.2918 10.8148C11.2918 10.8365 11.2703 10.8365 11.2488 10.8365Z" fill="#FF7200"/>
<path d="M6.38755 10.8599H6.34456L4.54328 10.6216C4.41216 10.5999 4.30469 10.4916 4.30469 10.3616V0.611562C4.30469 0.524896 4.34768 0.459896 4.39067 0.416562C4.45515 0.373229 4.52179 0.351562 4.60777 0.351562L8.75414 0.871562C8.88526 0.893229 8.99273 1.00156 8.99273 1.13156V8.17323C8.99273 8.3249 8.86161 8.4549 8.71115 8.4549C8.56068 8.4549 8.42956 8.3249 8.42956 8.17323V1.3699L4.80337 0.893229V10.1016L6.36605 10.2966C6.51867 10.3182 6.62614 10.4482 6.60465 10.5999C6.62614 10.7516 6.51866 10.8599 6.38755 10.8599Z" fill="#FF7200"/>
<path d="M8.81422 13.3268C7.31603 13.3268 6.10156 12.1135 6.10156 10.6185V10.5752C6.12306 9.14516 7.27304 7.95349 8.70675 7.91016H8.81422C9.53 7.91016 10.2028 8.19182 10.7036 8.69016C11.2023 9.18849 11.5075 9.86016 11.529 10.5535V10.6185C11.529 12.1135 10.3124 13.3268 8.81637 13.3268H8.81422ZM8.81422 8.45182H8.72824C7.57826 8.49516 6.64323 9.42682 6.64323 10.5752V10.5968C6.64323 11.7885 7.6191 12.7635 8.81422 12.7635C10.0093 12.7635 10.9852 11.7885 10.9852 10.5968V10.5535C10.9637 9.40516 9.9857 8.45182 8.81422 8.45182Z" fill="#FF7200"/>
<path d="M10.1094 10.6203L8.17483 11.7461L8.17483 9.49448L10.1094 10.6203Z" fill="white"/>
</svg>
