<svg width="14" height="12" viewBox="0 0 14 12" fill="none" xmlns="http://www.w3.org/2000/svg">
<mask id="path-1-inside-1_1745_1269" fill="white">
<path fill-rule="evenodd" clip-rule="evenodd" d="M0.515625 0.0117188C0.239483 0.0117188 0.015625 0.235577 0.015625 0.511719V1.30239V2.16931V10.5116C0.015625 10.7877 0.239483 11.0116 0.515625 11.0116H12.5156C12.7918 11.0116 13.0156 10.7877 13.0156 10.5116V1.80239C13.0156 1.52625 12.7918 1.30239 12.5156 1.30239H6.84675L5.23921 0.110119C5.15305 0.0462174 5.04862 0.0117188 4.94135 0.0117188H0.515625Z"/>
</mask>
<path d="M6.84675 1.30239L5.95319 2.50719L6.35121 2.80239H6.84675V1.30239ZM5.23921 0.110119L6.13278 -1.09468L6.13277 -1.09468L5.23921 0.110119ZM1.51562 0.511719C1.51562 1.064 1.06791 1.51172 0.515625 1.51172V-1.48828C-0.588946 -1.48828 -1.48438 -0.592849 -1.48438 0.511719H1.51562ZM1.51562 1.30239V0.511719H-1.48438V1.30239H1.51562ZM1.51562 2.16931V1.30239H-1.48438V2.16931H1.51562ZM1.51562 10.5116V2.16931H-1.48438V10.5116H1.51562ZM0.515625 9.51158C1.06791 9.51158 1.51562 9.95929 1.51562 10.5116H-1.48438C-1.48438 11.6161 -0.588943 12.5116 0.515625 12.5116V9.51158ZM12.5156 9.51158H0.515625V12.5116H12.5156V9.51158ZM11.5156 10.5116C11.5156 9.95929 11.9633 9.51158 12.5156 9.51158V12.5116C13.6202 12.5116 14.5156 11.6161 14.5156 10.5116H11.5156ZM11.5156 1.80239V10.5116H14.5156V1.80239H11.5156ZM12.5156 2.80239C11.9633 2.80239 11.5156 2.35468 11.5156 1.80239H14.5156C14.5156 0.697823 13.6202 -0.197607 12.5156 -0.197607V2.80239ZM6.84675 2.80239H12.5156V-0.197607H6.84675V2.80239ZM4.34564 1.31492L5.95319 2.50719L7.74032 0.0975947L6.13278 -1.09468L4.34564 1.31492ZM4.94135 1.51172C4.72681 1.51172 4.51796 1.44272 4.34564 1.31492L6.13277 -1.09468C5.78814 -1.35029 5.37043 -1.48828 4.94135 -1.48828V1.51172ZM0.515625 1.51172H4.94135V-1.48828H0.515625V1.51172Z" fill="#436AEB" mask="url(#path-1-inside-1_1745_1269)"/>
</svg>
